/* XPM */
static char *ocaml[] = {
/* columns rows colors chars-per-pixel */
"32 32 131 2",
"   c #663333",
".  c #6A3535",
"X  c #6B3636",
"o  c #6F3838",
"O  c #723939",
"+  c #743A3A",
"@  c #753A3A",
"#  c #763B3B",
"$  c #783C3C",
"%  c #793C3C",
"&  c #7A3D3D",
"*  c #824141",
"=  c #834242",
"-  c #844242",
";  c #864343",
":  c #884444",
">  c #8A4545",
",  c #8C4646",
"<  c #8D4646",
"1  c #8E4747",
"2  c #8F4848",
"3  c #904848",
"4  c #914848",
"5  c #924949",
"6  c #964B4B",
"7  c #974C4C",
"8  c #984C4C",
"9  c #9A4D4D",
"0  c #9B4E4E",
"q  c #9C4E4E",
"w  c #9D4E4E",
"e  c #9E4F4F",
"r  c #9F5050",
"t  c #A25151",
"y  c #A35252",
"u  c #A65353",
"i  c #A75454",
"p  c #A85454",
"a  c #A95454",
"s  c #AA5555",
"d  c #AB5656",
"f  c #AC5656",
"g  c #AE5757",
"h  c #B05858",
"j  c #B15858",
"k  c #B25959",
"l  c #B45A5A",
"z  c #B55A5A",
"x  c #B65B5B",
"c  c #B75C5C",
"v  c #B85C5C",
"b  c #B95C5C",
"n  c #BA5D5D",
"m  c #BB5E5E",
"M  c #BC5E5E",
"N  c #BD5E5E",
"B  c #BE5F5F",
"V  c #BF6060",
"C  c #C06060",
"Z  c #C16060",
"A  c #C26161",
"S  c #C36262",
"D  c #C46262",
"F  c #C56262",
"G  c #C66363",
"H  c #C76464",
"J  c #C86464",
"K  c #C96464",
"L  c #CA6565",
"P  c #CB6666",
"I  c #CC6666",
"U  c #CC6767",
"Y  c #CD6868",
"T  c #CD6969",
"R  c #CD6A6A",
"E  c #CE6B6B",
"W  c #CE6C6C",
"Q  c #CF6E6E",
"!  c #CF6F6F",
"~  c #CF7070",
"^  c #D07171",
"/  c #D07272",
"(  c #D07373",
")  c #D17474",
"_  c #D17575",
"`  c #D27777",
"'  c #D27878",
"]  c #D27979",
"[  c #D37A7A",
"{  c #D37C7C",
"}  c #D47D7D",
"|  c #D47E7E",
" . c #D58080",
".. c #D58181",
"X. c #D58282",
"o. c #D68383",
"O. c #D68585",
"+. c #D78686",
"@. c #D78787",
"#. c #D78888",
"$. c #D88989",
"%. c #D98C8C",
"&. c #D98E8E",
"*. c #DA9191",
"=. c #DB9292",
"-. c #DB9494",
";. c #DC9595",
":. c #DC9797",
">. c #DD9999",
",. c #DD9A9A",
"<. c #DE9B9B",
"1. c #DF9E9E",
"2. c #DFA0A0",
"3. c #E0A1A1",
"4. c #E0A3A3",
"5. c #E1A4A4",
"6. c #E2A7A7",
"7. c #E3AAAA",
"8. c #E3ABAB",
"9. c #E3ACAC",
"0. c #E5B2B2",
"q. c #E6B3B3",
"w. c #E6B5B5",
"e. c #E7B8B8",
"r. c #E8B9B9",
"t. c #E8BABA",
"y. c #E9BCBC",
"u. c #EAC1C1",
"i. c #EBC2C2",
"p. c #EBC4C4",
"a. c None",
/* pixels */
"a.a.a.a.a.a.a.a.a.a.a.a.a.a.a.a.a.a.a.a.a.a.a.a.a.a.a.a.a.a.a.a.",
"a.a.a.p.t.6.$.a.a.a.a.a.a.a.a.a.a.a.a.a.a.a.a.a.a.a.a.a.a.a.a.a.",
"a.a.u.y.6.$.B a.a.a.a.a.a.a.a.a.a.a.a.a.a.a.a.a.a.a.a.a.a.a.a.a.",
"a.a.w.<.{ A 5 a.a.a.a.a.a.a.a.a.a.a.a.a.a.a.a.a.a.a.a.a.a.a.a.a.",
"a.q.<.( J c 1 a.a.a.a.a.a.a.a.e.1.a.a.a.i.q.a.a.a.a.a.a.a.a.a.a.",
"7.3.Q d g x r a.a.a.a.a.a.a.t.8.;.;.a.i.t.3.;.$.a.a.a.a.a.a.a.a.",
"&.' 0 % 1 j n a.a.a.a.a.a.6.1.+.[ +.1.6.;.[ ' ' Y a.a.a.a.a.a.a.",
"G t X a.a.B ~ U a.a.a.a.a.9.=.^ U ^ _ [ ( U U Y J c a.a.a.a.a.a.",
"a.%   a.a.a. .' | -.a.a.i.8.+.T I I I I I I I I J V a.a.a.a.a.a.",
"a.a.a.a.a.a. .' ' *.6.q.8.=.( U I I I I I I I I Y H V a.a.a.a.a.",
"a.a.a.a.a.a.' ~ Y _ '  .} ^ I I I I I I I I I I U Y Y U a.a.a.a.",
"a.a.a.a.a.a.Y Y J J U Y I I I K I I I I I I I I J Y Q Y J a.a.a.",
"a.a.a.a.a.a.A B H J U U U U U U I I I I I I I I U Y J n u 0 a.a.",
"a.a.a.a.a.a.a.u d V J J U U K U I I I I I I I I U J G w # a.a.a.",
"a.a.a.a.a.a.a.a.2 0 j A K U U U U K K K K U U U U U B 5 o a.a.a.",
"a.a.a.a.a.a.a.a.a.> 0 x K J K G x u u g A K K K U U B 2 a.a.a.a.",
"a.a.a.a.a.a.a.a.a.a.a.H Y Y J j 1 X X 1 j J Y U U U B 1 a.a.a.a.",
"a.a.a.a.a.a.a.a.a.a.a.&.' J G d % a.a.a.B J U J K J x 1 a.a.a.a.",
"a.a.a.a.a.a.a.a.a.a.a.<.Y j n h > a.a.a.G H G n x x x 8 a.a.a.a.",
"a.a.a.a.a.a.a.a.a.a.2.X.0 = w x 0 a.a.a.a.j x w ; 5 g u a.a.a.a.",
"a.a.a.a.a.a.a.a.a.a.;.h   a.a.n d a.a.a.a.a.g 6 # a.t j w a.a.a.",
"a.a.a.a.a.a.a.a.a.<.' = a.a.a.B n w a.a.a.a.Z g - a.a.x u a.a.a.",
"a.a.a.a.a.a.a.a.a.O.Y ; a.a.a.a.B d a.a.a.a.a.U 5 a.a.A B a.a.a.",
"a.a.a.a.a.a.a.a.a.a.~ y a.a.a.a.x j a.a.a.a.a._ 5 a.a.a.~ n a.a.",
"a.a.a.a.a.a.a.a.a.a.~ B a.a.a.a.a.B j a.a.a.a._ 1 a.a.a._ Y a.a.",
"a.a.a.a.a.a.a.a.a.a.J U x a.a.a.a.a.J a.a.a.;.Y > a.a.a.a.| V a.",
"a.a.a.a.a.a.a.a.a.a.a._ J a.a.a.a.a.#.~ a.a.2.G a.a.a.a.a.=.J a.",
"a.a.a.a.a.a.a.a.a.a.a.a.| B a.a.a.a.a.*.a.a.<.u a.a.a.a.a. .d - ",
"a.a.a.a.a.a.a.a.a.a.a.( n 5 1 a.a.a.$.Q G J d O a.a.a.a.B 1     ",
"a.a.a.a.a.a.a.a.a.a.a.w #   a.a.a.a.6 #       a.a.a.a.a.a.a.a.a.",
"a.a.a.a.a.a.a.a.a.a.a.a.a.a.a.a.a.a.a.a.a.a.a.a.a.a.a.a.a.a.a.a.",
"a.a.a.a.a.a.a.a.a.a.a.a.a.a.a.a.a.a.a.a.a.a.a.a.a.a.a.a.a.a.a.a."
};
